<svg width="316" height="104" viewBox="0 0 316 104" fill="none" xmlns="http://www.w3.org/2000/svg">
<path d="M114.42 58.88C114.42 44.12 92.94 48.8 92.94 40.4C92.94 36.98 95.4 35.36 98.7 35.48C102.3 35.54 104.52 37.7 104.7 40.46H113.94C113.4 32.9 107.52 28.52 98.94 28.52C90.3 28.52 84.18 33.08 84.18 40.64C84.12 55.82 105.72 50.36 105.72 59.42C105.72 62.42 103.38 64.52 99.42 64.52C95.52 64.52 93.3 62.3 93.06 58.94H84.06C84.18 66.86 90.9 71.42 99.6 71.42C109.14 71.42 114.42 65.48 114.42 58.88ZM125.902 49.94C125.902 41.42 131.122 36.08 138.742 36.08C146.303 36.08 151.522 41.42 151.522 49.94C151.522 58.46 146.303 63.92 138.742 63.92C131.122 63.92 125.902 58.46 125.902 49.94ZM160.163 49.94C160.163 37.4 150.682 28.52 138.742 28.52C126.922 28.52 117.262 37.4 117.262 49.94C117.262 62.54 126.922 71.42 138.742 71.42C140.602 71.42 142.462 71.18 144.142 70.76L150.503 78.38H160.942L151.343 67.58C156.683 63.8 160.163 57.56 160.163 49.94ZM164.129 29.12V71H186.329V64.34H172.529V29.12H164.129ZM213.568 29.06H189.268V71H213.568V64.16H197.668V53.06H211.768V46.4H197.668V35.9H213.568V29.06ZM232.962 60.98L224.382 37.76H214.962L228.282 70.16L221.082 86.72H230.022L250.602 37.76H241.662L232.962 60.98ZM267.01 44.12C271.33 44.12 274.81 46.88 274.93 51.26H259.15C259.81 46.7 262.99 44.12 267.01 44.12ZM282.79 60.56H273.73C272.65 62.78 270.67 64.58 267.07 64.58C262.87 64.58 259.51 61.82 259.09 56.9H283.39C283.57 55.82 283.63 54.74 283.63 53.66C283.63 43.76 276.85 37.22 267.25 37.22C257.41 37.22 250.57 43.88 250.57 54.38C250.57 64.82 257.59 71.54 267.25 71.54C275.47 71.54 280.99 66.68 282.79 60.56ZM313.161 61.52C312.921 49.34 294.501 53.12 294.501 47.06C294.501 45.14 296.121 43.88 299.241 43.88C302.541 43.88 304.581 45.62 304.821 48.2H312.861C312.381 41.6 307.521 37.22 299.481 37.22C291.261 37.22 286.341 41.66 286.341 47.18C286.341 59.36 305.121 55.58 305.121 61.52C305.121 63.44 303.321 64.94 300.021 64.94C296.661 64.94 294.321 63.02 294.021 60.5H285.561C285.921 66.68 291.741 71.54 300.081 71.54C308.181 71.54 313.161 67.22 313.161 61.52Z" fill="white"/>
<path d="M98.7 35.48L98.6637 36.4793L98.6735 36.4797L98.6833 36.4799L98.7 35.48ZM104.7 40.46L103.702 40.5251L103.763 41.46H104.7V40.46ZM113.94 40.46V41.46H115.014L114.937 40.3888L113.94 40.46ZM84.18 40.64L85.18 40.644V40.64H84.18ZM93.06 58.94L94.0575 58.8688L93.9911 57.94H93.06V58.94ZM84.06 58.94V57.94H83.0447L83.0601 58.9551L84.06 58.94ZM115.42 58.88C115.42 54.9038 113.955 52.1544 111.724 50.1954C109.544 48.2819 106.687 47.1707 103.986 46.3029C101.196 45.4066 98.6617 44.7881 96.7314 43.8552C94.8527 42.9474 93.94 41.928 93.94 40.4H91.94C91.94 43.072 93.7123 44.6176 95.8612 45.656C97.9583 46.6694 100.794 47.3784 103.374 48.2071C106.043 49.0643 108.556 50.0756 110.404 51.6983C112.2 53.2756 113.42 55.4762 113.42 58.88H115.42ZM93.94 40.4C93.94 38.9508 94.4484 37.9971 95.2051 37.395C95.9912 36.7696 97.1715 36.4251 98.6637 36.4793L98.7363 34.4807C96.9285 34.4149 95.2288 34.8204 93.9599 35.83C92.6616 36.8629 91.94 38.4292 91.94 40.4H93.94ZM98.6833 36.4799C101.848 36.5326 103.561 38.3656 103.702 40.5251L105.698 40.3949C105.479 37.0344 102.752 34.5474 98.7167 34.4801L98.6833 36.4799ZM104.7 41.46H113.94V39.46H104.7V41.46ZM114.937 40.3888C114.649 36.3452 112.918 33.0924 110.071 30.8671C107.242 28.6563 103.392 27.52 98.94 27.52V29.52C103.068 29.52 106.448 30.5737 108.839 32.4429C111.212 34.2976 112.691 37.0148 112.943 40.5312L114.937 40.3888ZM98.94 27.52C94.4544 27.52 90.5256 28.7031 87.6959 30.9637C84.8431 33.2426 83.18 36.5627 83.18 40.64H85.18C85.18 37.1573 86.5769 34.4174 88.9441 32.5263C91.3344 30.6169 94.7856 29.52 98.94 29.52V27.52ZM83.18 40.636C83.1639 44.7101 84.6193 47.4949 86.8618 49.457C89.0494 51.3709 91.9226 52.4438 94.6325 53.2805C97.4325 54.145 99.9745 54.7425 101.903 55.6948C102.843 56.1587 103.543 56.6669 104.007 57.2544C104.455 57.8208 104.72 58.5068 104.72 59.42H106.72C106.72 58.0682 106.31 56.9429 105.577 56.0145C104.86 55.1072 103.873 54.4369 102.789 53.9015C100.669 52.855 97.815 52.17 95.2225 51.3695C92.5399 50.5412 90.0244 49.5665 88.1788 47.9518C86.3882 46.3851 85.1661 44.1599 85.18 40.644L83.18 40.636ZM104.72 59.42C104.72 60.6402 104.254 61.6274 103.415 62.3268C102.559 63.0402 101.231 63.52 99.42 63.52V65.52C101.569 65.52 103.391 64.9498 104.695 63.8632C106.016 62.7626 106.72 61.1998 106.72 59.42H104.72ZM99.42 63.52C97.6607 63.52 96.3898 63.0224 95.5402 62.2501C94.692 61.479 94.1627 60.3424 94.0575 58.8688L92.0625 59.0112C92.1973 60.8976 92.898 62.551 94.1948 63.7299C95.4903 64.9076 97.2793 65.52 99.42 65.52V63.52ZM93.06 57.94H84.06V59.94H93.06V57.94ZM83.0601 58.9551C83.1248 63.2265 84.9835 66.6314 88.0047 68.9441C91.0016 71.2382 95.0865 72.42 99.6 72.42V70.42C95.4135 70.42 91.7884 69.3218 89.2203 67.3559C86.6765 65.4086 85.1152 62.5735 85.0599 58.9248L83.0601 58.9551ZM99.6 72.42C104.581 72.42 108.54 70.8658 111.264 68.3611C113.988 65.8574 115.42 62.4533 115.42 58.88H113.42C113.42 61.9067 112.212 64.7726 109.911 66.8888C107.61 69.0042 104.159 70.42 99.6 70.42V72.42ZM144.142 70.76L144.91 70.1192L144.508 69.6378L143.9 69.7899L144.142 70.76ZM150.503 78.38L149.735 79.0208L150.035 79.38H150.503V78.38ZM160.942 78.38V79.38H163.169L161.69 77.7156L160.942 78.38ZM151.343 67.58L150.765 66.7638L149.853 67.4093L150.595 68.2444L151.343 67.58ZM126.902 49.94C126.902 45.8846 128.142 42.6812 130.193 40.5002C132.24 38.3241 135.175 37.08 138.742 37.08V35.08C134.69 35.08 131.205 36.5059 128.737 39.1298C126.273 41.7488 124.902 45.4754 124.902 49.94H126.902ZM138.742 37.08C142.278 37.08 145.198 38.3226 147.238 40.4989C149.283 42.6804 150.522 45.8846 150.522 49.94H152.522C152.522 45.4754 151.152 41.7496 148.697 39.1311C146.237 36.5074 142.767 35.08 138.742 35.08V37.08ZM150.522 49.94C150.522 53.996 149.283 57.2328 147.234 59.4456C145.191 61.6522 142.271 62.92 138.742 62.92V64.92C142.774 64.92 146.244 63.4578 148.701 60.8044C151.152 58.1572 152.522 54.404 152.522 49.94H150.522ZM138.742 62.92C135.182 62.92 132.247 61.6507 130.198 59.4444C128.142 57.232 126.902 53.9959 126.902 49.94H124.902C124.902 54.4041 126.273 58.158 128.732 60.8056C131.198 63.4593 134.683 64.92 138.742 64.92V62.92ZM161.163 49.94C161.163 36.8293 151.216 27.52 138.742 27.52V29.52C150.149 29.52 159.163 37.9707 159.163 49.94H161.163ZM138.742 27.52C126.396 27.52 116.262 36.8221 116.262 49.94H118.262C118.262 37.9779 127.449 29.52 138.742 29.52V27.52ZM116.262 49.94C116.262 63.116 126.394 72.42 138.742 72.42V70.42C127.451 70.42 118.262 61.964 118.262 49.94H116.262ZM138.742 72.42C140.685 72.42 142.627 72.1697 144.385 71.7301L143.9 69.7899C142.298 70.1903 140.52 70.42 138.742 70.42V72.42ZM143.375 71.4008L149.735 79.0208L151.27 77.7392L144.91 70.1192L143.375 71.4008ZM150.503 79.38H160.942V77.38H150.503V79.38ZM161.69 77.7156L152.09 66.9156L150.595 68.2444L160.195 79.0444L161.69 77.7156ZM151.92 68.3962C157.527 64.4272 161.163 57.8818 161.163 49.94H159.163C159.163 57.2382 155.838 63.1728 150.765 66.7638L151.92 68.3962ZM164.129 29.12V28.12H163.129V29.12H164.129ZM164.129 71H163.129V72H164.129V71ZM186.329 71V72H187.329V71H186.329ZM186.329 64.34H187.329V63.34H186.329V64.34ZM172.529 64.34H171.529V65.34H172.529V64.34ZM172.529 29.12H173.529V28.12H172.529V29.12ZM163.129 29.12V71H165.129V29.12H163.129ZM164.129 72H186.329V70H164.129V72ZM187.329 71V64.34H185.329V71H187.329ZM186.329 63.34H172.529V65.34H186.329V63.34ZM173.529 64.34V29.12H171.529V64.34H173.529ZM172.529 28.12H164.129V30.12H172.529V28.12ZM213.568 29.06H214.568V28.06H213.568V29.06ZM189.268 29.06V28.06H188.268V29.06H189.268ZM189.268 71H188.268V72H189.268V71ZM213.568 71V72H214.568V71H213.568ZM213.568 64.16H214.568V63.16H213.568V64.16ZM197.668 64.16H196.668V65.16H197.668V64.16ZM197.668 53.06V52.06H196.668V53.06H197.668ZM211.768 53.06V54.06H212.768V53.06H211.768ZM211.768 46.4H212.768V45.4H211.768V46.4ZM197.668 46.4H196.668V47.4H197.668V46.4ZM197.668 35.9V34.9H196.668V35.9H197.668ZM213.568 35.9V36.9H214.568V35.9H213.568ZM213.568 28.06H189.268V30.06H213.568V28.06ZM188.268 29.06V71H190.268V29.06H188.268ZM189.268 72H213.568V70H189.268V72ZM214.568 71V64.16H212.568V71H214.568ZM213.568 63.16H197.668V65.16H213.568V63.16ZM198.668 64.16V53.06H196.668V64.16H198.668ZM197.668 54.06H211.768V52.06H197.668V54.06ZM212.768 53.06V46.4H210.768V53.06H212.768ZM211.768 45.4H197.668V47.4H211.768V45.4ZM198.668 46.4V35.9H196.668V46.4H198.668ZM197.668 36.9H213.568V34.9H197.668V36.9ZM214.568 35.9V29.06H212.568V35.9H214.568ZM232.962 60.98L232.024 61.3266L232.955 63.8475L233.898 61.3309L232.962 60.98ZM224.382 37.76L225.32 37.4134L225.078 36.76H224.382V37.76ZM214.962 37.76V36.76H213.469L214.037 38.1402L214.962 37.76ZM228.282 70.16L229.199 70.5587L229.367 70.1709L229.207 69.7798L228.282 70.16ZM221.082 86.72L220.165 86.3213L219.557 87.72H221.082V86.72ZM230.022 86.72V87.72H230.686L230.944 87.1075L230.022 86.72ZM250.602 37.76L251.524 38.1475L252.107 36.76H250.602V37.76ZM241.662 37.76V36.76H240.969L240.725 37.4091L241.662 37.76ZM233.9 60.6334L225.32 37.4134L223.444 38.1066L232.024 61.3266L233.9 60.6334ZM224.382 36.76H214.962V38.76H224.382V36.76ZM214.037 38.1402L227.357 70.5402L229.207 69.7798L215.887 37.3798L214.037 38.1402ZM227.365 69.7613L220.165 86.3213L221.999 87.1187L229.199 70.5587L227.365 69.7613ZM221.082 87.72H230.022V85.72H221.082V87.72ZM230.944 87.1075L251.524 38.1475L249.68 37.3725L229.1 86.3325L230.944 87.1075ZM250.602 36.76H241.662V38.76H250.602V36.76ZM240.725 37.4091L232.025 60.6291L233.898 61.3309L242.598 38.1109L240.725 37.4091ZM274.93 51.26V52.26H275.958L275.929 51.2326L274.93 51.26ZM259.15 51.26L258.16 51.1168L257.995 52.26H259.15V51.26ZM282.79 60.56L283.749 60.8422L284.126 59.56H282.79V60.56ZM273.73 60.56V59.56H273.104L272.831 60.1225L273.73 60.56ZM259.09 56.9V55.9H258.001L258.093 56.9851L259.09 56.9ZM283.39 56.9V57.9H284.237L284.376 57.0644L283.39 56.9ZM267.01 45.12C270.897 45.12 273.828 47.551 273.93 51.2874L275.929 51.2326C275.792 46.209 271.763 43.12 267.01 43.12V45.12ZM274.93 50.26H259.15V52.26H274.93V50.26ZM260.14 51.4032C260.44 49.3269 261.301 47.7688 262.481 46.7306C263.66 45.6918 265.219 45.12 267.01 45.12V43.12C264.781 43.12 262.739 43.8382 261.159 45.2294C259.578 46.6212 258.52 48.6331 258.16 51.1168L260.14 51.4032ZM282.79 59.56H273.73V61.56H282.79V59.56ZM272.831 60.1225C272.349 61.1126 271.688 61.9654 270.786 62.5731C269.89 63.1766 268.695 63.58 267.07 63.58V65.58C269.045 65.58 270.639 65.0834 271.904 64.2319C273.161 63.3846 274.031 62.2274 274.629 60.9975L272.831 60.1225ZM267.07 63.58C265.192 63.58 263.553 62.9659 262.34 61.8493C261.129 60.735 260.278 59.0591 260.086 56.8149L258.093 56.9851C258.322 59.6609 259.36 61.825 260.985 63.3207C262.607 64.8141 264.747 65.58 267.07 65.58V63.58ZM259.09 57.9H283.39V55.9H259.09V57.9ZM284.376 57.0644C284.568 55.914 284.63 54.7759 284.63 53.66H282.63C282.63 54.704 282.572 55.726 282.403 56.7356L284.376 57.0644ZM284.63 53.66C284.63 48.4749 282.85 44.099 279.744 41.0176C276.64 37.9378 272.281 36.22 267.25 36.22V38.22C271.818 38.22 275.65 39.7722 278.336 42.4374C281.02 45.101 282.63 48.9451 282.63 53.66H284.63ZM267.25 36.22C262.099 36.22 257.66 37.9676 254.508 41.1599C251.356 44.3521 249.57 48.9084 249.57 54.38H251.57C251.57 49.3516 253.203 45.3279 255.931 42.5651C258.659 39.8024 262.561 38.22 267.25 38.22V36.22ZM249.57 54.38C249.57 59.8302 251.407 64.3845 254.578 67.5794C257.748 70.7735 262.183 72.54 267.25 72.54V70.54C262.657 70.54 258.752 68.9465 255.997 66.1706C253.243 63.3955 251.57 59.3698 251.57 54.38H249.57ZM267.25 72.54C275.918 72.54 281.825 67.3838 283.749 60.8422L281.83 60.2778C280.154 65.9762 275.022 70.54 267.25 70.54V72.54ZM313.161 61.52H314.161V61.5101L314.161 61.5003L313.161 61.52ZM304.821 48.2L303.825 48.2926L303.91 49.2H304.821V48.2ZM312.861 48.2V49.2H313.936L313.858 48.1275L312.861 48.2ZM294.021 60.5L295.014 60.3818L294.909 59.5H294.021V60.5ZM285.561 60.5V59.5H284.501L284.563 60.5582L285.561 60.5ZM314.161 61.5003C314.095 58.1556 312.76 55.8366 310.781 54.2031C308.853 52.6119 306.358 51.7082 304.018 51.0341C302.847 50.6969 301.659 50.4026 300.599 50.1205C299.52 49.833 298.559 49.5544 297.752 49.2339C296.074 48.5667 295.501 47.9004 295.501 47.06H293.501C293.501 49.2496 295.23 50.3833 297.013 51.0924C297.938 51.4599 298.997 51.7636 300.085 52.0531C301.192 52.348 302.318 52.6256 303.464 52.9559C305.759 53.6168 307.914 54.4306 309.508 55.7456C311.05 57.0184 312.107 58.7944 312.161 61.5397L314.161 61.5003ZM295.501 47.06C295.501 46.4213 295.751 45.9348 296.274 45.57C296.839 45.1749 297.796 44.88 299.241 44.88V42.88C297.567 42.88 296.153 43.2151 295.129 43.93C294.061 44.6752 293.501 45.7786 293.501 47.06H295.501ZM299.241 44.88C300.719 44.88 301.819 45.2688 302.556 45.8552C303.282 46.4327 303.729 47.2567 303.825 48.2926L305.817 48.1074C305.673 46.5633 304.98 45.2273 303.801 44.2898C302.633 43.3612 301.063 42.88 299.241 42.88V44.88ZM304.821 49.2H312.861V47.2H304.821V49.2ZM313.858 48.1275C313.601 44.5888 312.159 41.5825 309.65 39.4701C307.151 37.3652 303.68 36.22 299.481 36.22V38.22C303.322 38.22 306.301 39.2648 308.362 40.9999C310.414 42.7275 311.641 45.2112 311.864 48.2725L313.858 48.1275ZM299.481 36.22C295.197 36.22 291.677 37.3774 289.205 39.3481C286.722 41.3282 285.341 44.1004 285.341 47.18H287.341C287.341 44.7396 288.42 42.5318 290.452 40.9119C292.495 39.2826 295.545 38.22 299.481 38.22V36.22ZM285.341 47.18C285.341 50.5315 286.654 52.8592 288.639 54.4954C290.57 56.0868 293.09 56.9862 295.46 57.6527C296.648 57.9867 297.851 58.2753 298.93 58.5525C300.028 58.8344 301.007 59.1068 301.83 59.4206C302.663 59.738 303.252 60.0678 303.625 60.4222C303.965 60.7459 304.121 61.0836 304.121 61.52H306.121C306.121 60.4714 305.691 59.6278 305.004 58.9737C304.349 58.3503 303.471 57.9057 302.543 57.5519C301.606 57.1944 300.531 56.8987 299.428 56.6153C298.306 56.3272 297.161 56.0533 296.002 55.7273C293.677 55.0738 291.502 54.2632 289.912 52.9521C288.375 51.6858 287.341 49.9185 287.341 47.18H285.341ZM304.121 61.52C304.121 62.132 303.848 62.6936 303.228 63.1358C302.584 63.595 301.533 63.94 300.021 63.94V65.94C301.81 65.94 303.308 65.535 304.389 64.7642C305.494 63.9764 306.121 62.828 306.121 61.52H304.121ZM300.021 63.94C297.029 63.94 295.239 62.2723 295.014 60.3818L293.028 60.6182C293.403 63.7677 296.293 65.94 300.021 65.94V63.94ZM294.021 59.5H285.561V61.5H294.021V59.5ZM284.563 60.5582C284.963 67.4282 291.39 72.54 300.081 72.54V70.54C292.093 70.54 286.879 65.9318 286.559 60.4418L284.563 60.5582ZM300.081 72.54C304.302 72.54 307.807 71.4144 310.28 69.4506C312.768 67.4752 314.161 64.6857 314.161 61.52H312.161C312.161 64.0543 311.064 66.2748 309.037 67.8844C306.995 69.5056 303.96 70.54 300.081 70.54V72.54Z" fill="black"/>
<path d="M7.22222 69C7.22222 70.1532 8.88695 72.1611 12.7472 74.1321C17.745 76.6816 24.8336 78.2105 32.5 78.2105C40.1664 78.2105 47.255 76.6816 52.2528 74.1321C56.1131 72.1611 57.7778 70.1532 57.7778 69V61.0016C51.8194 64.7595 42.7086 67.1579 32.5 67.1579C22.2914 67.1579 13.1806 64.7558 7.22222 61.0016V69ZM57.7778 79.4226C51.8194 83.1805 42.7086 85.5789 32.5 85.5789C22.2914 85.5789 13.1806 83.1768 7.22222 79.4226V87.4211C7.22222 88.5742 8.88695 90.5821 12.7472 92.5532C17.745 95.1026 24.8336 96.6316 32.5 96.6316C40.1664 96.6316 47.255 95.1026 52.2528 92.5532C56.1131 90.5821 57.7778 88.5742 57.7778 87.4211V79.4226ZM0 87.4211V50.5789C0 41.4237 14.5528 34 32.5 34C50.4472 34 65 41.4237 65 50.5789V87.4211C65 96.5763 50.4472 104 32.5 104C14.5528 104 0 96.5763 0 87.4211ZM32.5 59.7895C40.1664 59.7895 47.255 58.2605 52.2528 55.7111C56.1131 53.74 57.7778 51.7321 57.7778 50.5789C57.7778 49.4258 56.1131 47.4179 52.2528 45.4468C47.255 42.8974 40.1664 41.3684 32.5 41.3684C24.8336 41.3684 17.745 42.8974 12.7472 45.4468C8.88695 47.4179 7.22222 49.4258 7.22222 50.5789C7.22222 51.7321 8.88695 53.74 12.7472 55.7111C17.745 58.2605 24.8336 59.7895 32.5 59.7895Z" fill="url(#paint0_linear_0_3)"/>
<circle cx="32.5" cy="50.5" r="7.5" fill="url(#paint1_linear_0_3)"/>
<circle cx="36.5" cy="48.5" r="4.5" fill="url(#paint2_linear_0_3)"/>
<defs>
<linearGradient id="paint0_linear_0_3" x1="32.5" y1="34" x2="32.5" y2="104" gradientUnits="userSpaceOnUse">
<stop stop-color="#15C179"/>
<stop offset="0.791667" stop-color="#15C179" stop-opacity="0"/>
</linearGradient>
<linearGradient id="paint1_linear_0_3" x1="32.5" y1="34" x2="32.5" y2="97" gradientUnits="userSpaceOnUse">
<stop stop-color="#15C179"/>
<stop offset="1" stop-color="#15C179" stop-opacity="0"/>
</linearGradient>
<linearGradient id="paint2_linear_0_3" x1="36.5" y1="44" x2="36.5" y2="53" gradientUnits="userSpaceOnUse">
<stop stop-color="white"/>
<stop offset="1" stop-color="white"/>
</linearGradient>
</defs>
</svg>
